<?xml version="1.0" encoding="UTF-8" standalone="no"?>
<!DOCTYPE svg PUBLIC "-//W3C//DTD SVG 1.1//EN" "http://www.w3.org/Graphics/SVG/1.1/DTD/svg11.dtd">
<svg xmlns="http://www.w3.org/2000/svg" version="1.1" viewBox="0.00 0.00 850.00 850.00">
<path fill="#ffffff" d="
  M 454.95 131.74
  C 460.51 125.63 466.25 120.18 470.74 111.75
  C 472.28 108.84 475.18 107.36 477.04 104.61
  C 479.63 100.76 481.51 84.96 480.50 80.52
  Q 480.41 80.13 480.80 80.05
  C 487.56 78.62 486.77 97.18 486.62 100.44
  Q 486.59 101.07 487.03 100.62
  C 492.27 95.30 493.65 89.46 495.80 82.97
  A 1.18 1.17 40.4 0 1 497.96 82.80
  Q 499.36 85.49 499.84 88.72
  Q 500.13 90.70 499.09 92.66
  Q 496.09 98.27 492.04 103.15
  C 488.42 107.52 482.81 109.07 479.45 113.86
  C 474.87 120.40 470.49 126.53 465.16 132.44
  C 451.15 147.96 462.68 169.63 474.93 181.55
  C 481.54 187.97 490.84 191.13 498.48 196.34
  Q 501.30 198.25 504.12 200.17
  Q 504.53 200.45 504.60 199.96
  Q 505.93 190.88 508.26 182.01
  Q 508.47 181.19 508.17 179.48
  Q 508.08 179.00 507.68 178.71
  C 505.38 177.08 500.30 174.98 499.10 172.70
  A 1.53 1.52 72.4 0 1 500.25 170.47
  C 505.15 169.84 509.76 170.99 512.46 175.40
  C 515.89 181.01 514.41 187.28 512.61 193.56
  C 511.24 198.33 512.90 201.86 516.99 204.28
  Q 517.48 204.57 517.71 205.08
  L 520.80 211.75
  Q 521.01 212.22 521.51 212.10
  Q 529.29 210.20 536.95 212.38
  Q 537.40 212.51 537.80 212.25
  L 540.42 210.51
  Q 540.83 210.25 541.31 210.25
  Q 542.70 210.26 543.75 209.30
  A 1.88 1.88 0.0 0 1 546.17 209.20
  Q 548.50 211.01 550.65 209.10
  Q 550.95 208.84 551.35 208.84
  Q 557.86 208.94 563.41 212.33
  Q 563.90 212.62 564.19 212.14
  Q 567.63 206.49 572.24 201.97
  Q 575.93 198.35 573.52 193.49
  C 570.34 187.06 567.88 183.12 568.17 174.81
  C 568.30 171.10 567.40 168.91 564.94 166.45
  A 0.86 0.85 60.4 0 1 565.33 165.02
  C 572.44 163.21 573.70 167.96 573.75 173.82
  C 573.80 181.23 576.82 186.39 579.79 192.46
  Q 579.98 192.84 580.30 192.56
  Q 587.58 186.00 598.74 182.49
  C 617.89 176.49 625.56 158.49 624.99 139.76
  C 624.19 113.18 603.56 101.61 581.64 94.19
  C 580.22 93.71 578.86 92.43 579.42 90.94
  Q 579.62 90.38 580.22 90.36
  Q 589.83 89.89 598.67 93.26
  C 600.55 93.98 602.35 95.50 604.49 96.35
  Q 605.28 96.66 604.84 95.94
  C 602.19 91.66 597.98 85.64 601.28 82.52
  A 1.83 1.83 0.0 0 1 604.02 82.79
  Q 608.14 88.53 611.37 95.01
  C 615.05 102.43 617.76 106.75 622.53 112.25
  Q 623.75 113.66 623.75 111.79
  L 623.75 110.27
  A 0.97 0.97 0.0 0 1 625.56 109.79
  Q 626.63 111.68 626.09 114.06
  Q 625.99 114.54 626.14 115.00
  C 631.45 130.90 635.51 143.43 630.25 159.62
  Q 629.16 162.99 631.93 160.78
  C 635.33 158.08 639.54 154.23 641.52 150.35
  C 645.12 143.30 645.31 133.47 645.34 125.72
  A 0.72 0.72 0.0 0 1 646.46 125.12
  C 650.83 128.03 651.33 140.19 651.44 145.00
  C 651.50 147.95 649.05 152.87 647.61 155.51
  Q 641.64 166.40 628.96 170.68
  Q 626.84 171.40 625.19 173.36
  C 622.46 176.61 619.61 179.47 616.70 182.54
  Q 616.08 183.20 616.98 183.19
  Q 621.87 183.18 624.54 179.04
  Q 624.84 178.57 625.40 178.49
  Q 626.27 178.38 626.78 179.16
  Q 627.11 179.67 627.58 179.28
  C 631.33 176.19 633.65 172.48 638.34 171.28
  A 0.77 0.76 69.2 0 1 639.22 171.68
  Q 639.89 173.02 639.33 174.52
  Q 634.22 188.39 620.61 190.28
  C 616.56 190.84 611.16 189.66 607.27 189.80
  Q 594.81 190.26 586.62 198.80
  C 583.52 202.04 582.51 206.89 581.42 211.17
  C 580.72 213.88 577.22 218.40 575.75 221.10
  Q 575.46 221.65 575.95 222.02
  C 577.26 223.00 580.09 224.34 579.34 226.25
  A 1.50 1.50 0.0 0 1 577.85 227.20
  Q 575.35 227.05 573.05 226.02
  A 0.29 0.29 0.0 0 0 572.74 226.51
  Q 581.53 233.82 584.29 244.97
  A 1.04 1.03 -7.0 0 1 583.28 246.25
  L 581.07 246.25
  Q 580.51 246.25 580.51 246.82
  C 580.55 250.60 581.94 254.10 581.55 257.71
  Q 580.97 262.97 580.46 268.23
  Q 580.43 268.60 580.06 268.68
  L 574.68 269.85
  Q 574.03 270.00 574.02 270.67
  C 573.99 278.69 574.62 285.64 569.30 292.28
  A 0.94 0.93 33.7 0 0 569.59 293.69
  Q 571.56 294.77 572.48 296.80
  A 0.79 0.78 53.3 0 1 572.36 297.64
  Q 570.70 299.63 568.40 300.64
  A 0.64 0.63 65.1 0 1 567.57 300.33
  L 566.75 298.57
  A 1.03 1.03 0.0 0 0 564.97 298.42
  C 562.71 301.66 558.91 308.69 554.31 307.22
  C 553.70 307.03 540.71 301.91 540.69 301.96
  Q 540.54 302.33 540.87 302.53
  C 549.66 307.78 558.81 307.67 561.95 318.99
  C 563.64 325.09 565.28 335.82 562.10 342.09
  C 559.78 346.66 556.85 350.84 555.21 355.63
  Q 551.58 366.23 547.79 376.78
  C 546.76 379.66 541.18 389.22 542.49 391.70
  C 549.50 405.00 552.67 415.30 558.50 432.75
  Q 558.73 433.45 559.94 435.43
  Q 560.22 435.88 560.69 436.12
  Q 563.60 437.62 561.88 440.74
  A 1.48 1.48 0.0 0 0 563.03 442.93
  L 567.19 443.35
  A 1.32 1.32 0.0 0 1 568.11 445.45
  L 565.88 448.44
  A 1.00 0.99 -39.8 0 0 565.78 449.45
  Q 571.10 460.50 577.05 470.81
  C 582.35 480.02 583.61 492.52 579.50 502.02
  Q 578.99 503.20 577.71 503.05
  Q 575.25 502.76 574.99 500.27
  A 0.89 0.89 0.0 0 0 573.56 499.65
  C 571.69 501.08 567.12 503.50 566.01 499.75
  Q 565.90 499.39 566.15 499.10
  L 568.47 496.45
  Q 569.03 495.81 568.19 495.94
  Q 565.94 496.29 564.50 498.07
  A 1.45 1.44 -34.7 0 1 562.01 497.62
  L 559.59 490.36
  Q 559.42 489.84 559.80 489.45
  Q 561.08 488.15 563.18 488.33
  A 0.47 0.46 9.7 0 0 563.67 487.99
  Q 563.72 487.82 563.77 487.68
  A 0.24 0.23 5.7 0 0 563.51 487.37
  C 561.10 487.74 559.65 486.84 559.24 484.35
  Q 557.71 474.93 556.11 465.58
  Q 555.76 463.50 556.32 459.87
  Q 556.40 459.36 556.12 458.93
  Q 553.31 454.64 551.12 450.06
  C 544.91 437.11 536.52 424.40 531.73 415.52
  Q 526.22 405.31 521.17 391.29
  Q 521.00 390.82 520.80 391.27
  Q 517.70 398.06 516.73 403.01
  C 515.13 411.11 520.09 423.76 522.68 431.78
  C 525.19 439.57 525.54 447.32 528.97 455.08
  Q 529.66 456.63 532.70 462.84
  Q 546.56 491.09 551.49 522.75
  Q 554.42 541.53 556.13 554.56
  C 556.35 556.28 557.30 557.94 557.28 559.95
  Q 557.27 560.46 557.00 560.89
  Q 556.06 562.42 556.25 564.50
  C 557.66 579.13 559.65 592.52 562.36 606.49
  C 568.53 638.26 556.90 669.42 559.76 700.25
  C 560.97 713.32 567.39 725.73 570.53 739.49
  C 573.06 750.61 563.79 761.59 554.22 765.70
  C 551.61 766.82 548.09 761.70 546.35 759.08
  C 542.38 753.13 539.54 749.42 539.51 741.75
  C 539.49 735.28 541.92 727.48 539.85 719.44
  C 538.74 715.12 535.89 710.72 533.97 706.27
  Q 528.43 693.48 539.30 686.05
  A 0.83 0.82 69.6 0 0 539.65 685.27
  C 537.79 670.75 533.77 658.25 530.05 644.87
  C 528.06 637.69 526.42 629.00 525.99 622.75
  C 525.26 612.05 524.99 603.60 521.06 594.29
  C 514.10 577.84 508.81 558.21 504.45 547.06
  Q 495.34 523.76 486.31 500.44
  Q 483.20 492.42 479.28 484.78
  A 0.64 0.64 0.0 0 0 478.26 484.62
  L 477.94 484.93
  Q 477.68 485.19 477.68 485.56
  C 477.56 506.10 478.77 528.31 475.56 549.90
  Q 474.12 559.55 473.96 560.11
  C 471.04 570.00 459.08 575.73 449.55 574.41
  C 445.55 573.86 440.46 571.79 435.73 571.97
  C 428.89 572.24 423.42 574.84 421.07 581.80
  Q 417.04 593.71 418.63 606.17
  C 419.99 616.76 415.02 626.13 409.91 634.42
  Q 409.46 635.15 408.63 635.35
  Q 404.10 636.44 402.76 632.54
  Q 402.64 632.17 402.28 632.31
  L 400.15 633.15
  Q 399.63 633.35 399.14 633.07
  Q 396.67 631.66 397.30 628.81
  A 1.05 1.05 0.0 0 0 396.25 627.54
  C 392.00 627.63 393.21 622.26 389.63 623.02
  A 1.14 1.13 83.6 0 1 388.26 621.92
  L 388.23 619.50
  Q 388.23 618.93 387.68 618.75
  C 382.36 617.03 385.28 603.81 386.26 600.13
  Q 387.11 596.94 391.92 587.08
  Q 397.38 575.90 401.24 564.04
  Q 401.86 562.15 404.57 558.79
  C 407.13 555.62 411.75 554.35 413.50 550.64
  C 417.68 541.80 421.03 537.50 429.45 532.39
  A 1.68 1.68 0.0 0 0 430.22 530.54
  Q 427.28 518.75 423.95 506.83
  C 420.16 493.32 418.89 482.18 419.33 469.00
  C 419.52 463.22 420.84 455.94 421.31 449.35
  Q 421.35 448.77 420.77 448.85
  L 411.01 450.16
  Q 409.22 450.40 410.15 451.94
  C 412.30 455.56 413.62 459.47 414.09 463.92
  C 414.59 468.59 416.22 485.22 410.53 486.06
  C 405.76 486.77 405.74 475.67 405.30 472.78
  Q 405.23 472.29 404.76 472.47
  C 402.67 473.28 397.41 477.12 400.05 479.86
  A 1.13 1.13 0.0 0 1 400.00 481.48
  Q 399.01 482.37 398.29 483.54
  Q 397.95 484.11 398.55 484.40
  Q 400.89 485.54 402.61 487.50
  Q 402.96 487.89 402.84 488.40
  Q 402.15 491.36 398.80 490.35
  A 0.55 0.55 0.0 0 0 398.36 491.36
  Q 400.79 492.79 401.78 495.43
  A 1.35 1.35 0.0 0 1 401.75 496.42
  Q 400.23 499.81 397.60 502.51
  A 1.68 1.68 0.0 0 1 395.05 502.34
  C 391.65 497.72 389.96 491.25 387.75 485.96
  Q 387.56 485.51 387.81 485.10
  Q 388.61 483.80 388.21 482.26
  C 387.00 477.51 385.41 471.88 387.04 467.22
  Q 390.18 458.20 393.66 449.32
  Q 393.87 448.77 393.29 448.78
  C 371.85 449.00 346.27 445.46 328.29 435.00
  Q 315.57 427.60 309.55 424.99
  C 295.60 418.94 277.25 414.86 262.22 418.69
  C 245.83 422.87 234.22 437.55 225.05 450.81
  C 222.88 453.96 223.12 464.31 223.63 468.07
  Q 225.06 478.80 228.16 489.16
  C 230.49 496.94 228.98 503.88 222.72 509.26
  C 220.30 511.33 217.04 511.62 213.95 512.39
  Q 213.44 512.52 213.49 513.05
  C 213.80 516.09 215.57 523.48 211.12 522.07
  Q 210.66 521.92 210.65 521.43
  Q 210.62 520.09 210.01 518.84
  A 0.94 0.94 0.0 0 0 208.23 519.28
  C 208.48 528.65 209.35 531.56 198.63 531.22
  A 0.65 0.65 0.0 0 1 198.00 530.55
  L 198.06 528.55
  Q 198.08 528.00 198.63 528.00
  L 201.49 528.00
  A 1.27 1.26 -0.2 0 0 202.76 526.73
  Q 202.75 523.81 202.56 520.90
  C 202.18 514.99 199.59 513.11 204.34 507.75
  C 208.50 503.05 209.52 497.54 215.68 494.22
  Q 216.12 493.98 216.55 494.24
  L 217.75 494.95
  Q 218.62 495.48 218.51 494.47
  Q 216.47 476.37 218.58 458.41
  Q 219.12 453.82 220.89 449.83
  C 234.52 419.04 261.77 403.04 295.28 410.00
  C 313.79 413.85 332.76 422.92 351.25 429.37
  Q 373.22 437.03 394.26 437.50
  Q 396.43 437.54 396.55 434.91
  Q 396.57 434.50 396.26 434.22
  C 393.59 431.80 396.96 429.60 399.28 428.40
  A 0.50 0.49 56.5 0 0 399.43 427.64
  Q 399.09 427.23 398.40 427.29
  A 1.39 1.39 0.0 0 1 397.23 424.99
  C 398.71 423.28 403.00 419.35 400.46 417.31
  Q 400.01 416.95 399.84 416.41
  Q 398.64 412.64 402.06 411.42
  A 2.47 2.47 0.0 0 0 402.97 407.35
  L 400.88 405.25
  A 0.64 0.64 0.0 0 1 400.77 404.49
  Q 402.16 401.95 404.87 401.14
  A 0.85 0.84 -1.4 0 0 405.44 400.55
  C 412.89 372.86 427.67 353.92 444.80 326.48
  C 446.40 323.92 446.03 321.31 447.44 318.54
  Q 447.67 318.08 447.43 317.63
  L 446.10 315.10
  A 1.43 1.43 0.0 0 1 447.36 313.00
  L 449.69 313.00
  Q 450.27 313.00 450.44 312.45
  Q 452.05 307.33 455.85 303.70
  Q 456.31 303.26 456.29 302.63
  L 456.14 298.94
  Q 456.12 298.33 456.73 298.30
  L 459.08 298.22
  Q 459.37 298.21 459.44 297.92
  Q 460.62 292.97 465.98 293.96
  Q 466.65 294.08 466.56 293.41
  L 466.25 291.17
  A 0.59 0.59 0.0 0 1 466.83 290.50
  L 469.96 290.50
  Q 470.49 290.50 470.81 290.92
  Q 471.47 291.80 472.57 291.76
  Q 473.11 291.74 473.17 291.20
  L 473.30 289.90
  A 0.73 0.73 0.0 0 1 473.95 289.25
  Q 476.53 289.01 477.66 291.29
  A 0.88 0.87 -14.0 0 0 478.50 291.79
  Q 480.66 291.67 482.05 289.95
  A 1.41 1.38 18.1 0 1 483.10 289.43
  L 491.01 289.18
  Q 492.23 289.14 491.58 288.10
  C 489.85 285.36 487.11 281.82 483.18 282.33
  Q 482.59 282.41 482.50 281.82
  Q 481.73 277.05 476.61 277.89
  Q 476.14 277.97 475.86 277.58
  Q 475.08 276.49 475.74 275.35
  Q 476.04 274.83 476.64 274.88
  Q 478.51 275.04 479.99 274.14
  A 0.37 0.37 0.0 0 0 479.87 273.46
  C 476.33 272.72 472.41 274.84 469.78 271.62
  A 1.55 1.54 62.5 0 1 470.55 269.16
  Q 493.90 262.48 502.30 240.20
  C 504.24 235.04 506.28 231.24 508.57 226.75
  A 1.00 0.99 -45.9 0 0 508.56 225.82
  Q 502.00 213.82 491.22 204.06
  C 484.44 197.92 475.50 210.31 467.74 207.20
  Q 460.31 204.22 452.66 201.87
  C 449.09 200.77 453.01 196.96 455.27 196.78
  Q 461.22 196.32 467.46 199.07
  Q 471.74 200.97 475.31 197.96
  A 0.46 0.45 -49.0 0 0 475.26 197.23
  Q 470.67 194.30 468.37 189.31
  A 0.92 0.91 80.3 0 0 467.63 188.78
  C 459.86 188.02 448.18 186.49 442.06 180.31
  C 437.50 175.72 434.40 164.88 431.45 158.69
  A 1.22 1.22 0.0 0 1 432.76 156.97
  L 439.00 158.09
  Q 439.54 158.18 439.71 158.69
  C 443.60 169.96 447.27 179.95 461.30 180.68
  Q 461.76 180.70 461.54 180.30
  C 453.28 165.36 447.33 151.96 448.60 134.45
  Q 448.78 131.99 450.24 126.18
  Q 452.95 115.46 450.64 103.99
  Q 450.36 102.61 451.77 102.46
  C 453.28 102.29 455.76 105.49 456.83 106.54
  A 1.19 1.18 22.2 0 1 457.19 107.39
  Q 457.18 110.82 457.11 114.22
  C 456.98 119.89 455.27 125.80 454.69 131.63
  Q 454.64 132.07 454.95 131.74
  Z
  M 579.91 243.76
  Q 579.16 243.69 579.61 244.29
  L 580.10 244.95
  Q 580.64 245.67 580.75 244.78
  Q 580.86 243.84 579.91 243.76
  Z
  M 496.6601 290.2933
  A 0.71 0.55 42.9 0 0 496.5144 289.4071
  A 0.71 0.55 42.9 0 0 495.6199 289.3267
  A 0.71 0.55 42.9 0 0 495.7656 290.2129
  A 0.71 0.55 42.9 0 0 496.6601 290.2933
  Z
  M 422.15 417.29
  C 424.45 417.51 422.60 421.03 421.89 422.15
  A 0.83 0.81 20.1 0 1 421.09 422.51
  Q 417.58 421.99 416.78 425.74
  Q 415.47 431.95 415.14 435.50
  Q 415.07 436.26 415.82 436.10
  L 426.08 433.89
  Q 426.61 433.78 426.90 433.32
  C 435.41 420.21 444.43 407.75 453.91 393.68
  Q 462.81 380.48 463.12 365.27
  C 463.19 361.97 460.02 360.56 459.54 357.31
  A 0.67 0.65 76.0 0 1 459.96 356.59
  L 462.85 355.51
  Q 463.32 355.34 463.42 354.85
  Q 464.60 348.90 464.21 342.82
  Q 464.19 342.58 464.05 342.77
  Q 457.79 350.90 442.78 368.29
  C 434.24 378.18 431.10 392.78 427.82 405.10
  C 426.58 409.76 424.65 412.25 421.50 415.58
  A 1.02 1.02 0.0 0 0 422.15 417.29
  Z"
/>
</svg>
